<svg aria-hidden="true" style="position: absolute; width: 0; height: 0; overflow: hidden;" version="1.1" xmlns="http://www.w3.org/2000/svg" xmlns:xlink="http://www.w3.org/1999/xlink">
<defs>
<symbol id="icon-facebook" viewBox="0 0 32 32">
<path d="M19 6h5v-6h-5c-3.86 0-7 3.14-7 7v3h-4v6h4v16h6v-16h5l1-6h-6v-3c0-0.542 0.458-1 1-1z"></path>
</symbol>
<symbol id="icon-instagram" viewBox="0 0 32 32">
<path d="M16 2.881c4.275 0 4.781 0.019 6.462 0.094 1.563 0.069 2.406 0.331 2.969 0.55 0.744 0.288 1.281 0.638 1.837 1.194 0.563 0.563 0.906 1.094 1.2 1.838 0.219 0.563 0.481 1.412 0.55 2.969 0.075 1.688 0.094 2.194 0.094 6.463s-0.019 4.781-0.094 6.463c-0.069 1.563-0.331 2.406-0.55 2.969-0.288 0.744-0.637 1.281-1.194 1.837-0.563 0.563-1.094 0.906-1.837 1.2-0.563 0.219-1.413 0.481-2.969 0.55-1.688 0.075-2.194 0.094-6.463 0.094s-4.781-0.019-6.463-0.094c-1.563-0.069-2.406-0.331-2.969-0.55-0.744-0.288-1.281-0.637-1.838-1.194-0.563-0.563-0.906-1.094-1.2-1.837-0.219-0.563-0.481-1.413-0.55-2.969-0.075-1.688-0.094-2.194-0.094-6.463s0.019-4.781 0.094-6.463c0.069-1.563 0.331-2.406 0.55-2.969 0.288-0.744 0.638-1.281 1.194-1.838 0.563-0.563 1.094-0.906 1.838-1.2 0.563-0.219 1.412-0.481 2.969-0.55 1.681-0.075 2.188-0.094 6.463-0.094zM16 0c-4.344 0-4.887 0.019-6.594 0.094-1.7 0.075-2.869 0.35-3.881 0.744-1.056 0.412-1.95 0.956-2.837 1.85-0.894 0.888-1.438 1.781-1.85 2.831-0.394 1.019-0.669 2.181-0.744 3.881-0.075 1.713-0.094 2.256-0.094 6.6s0.019 4.887 0.094 6.594c0.075 1.7 0.35 2.869 0.744 3.881 0.413 1.056 0.956 1.95 1.85 2.837 0.887 0.887 1.781 1.438 2.831 1.844 1.019 0.394 2.181 0.669 3.881 0.744 1.706 0.075 2.25 0.094 6.594 0.094s4.888-0.019 6.594-0.094c1.7-0.075 2.869-0.35 3.881-0.744 1.050-0.406 1.944-0.956 2.831-1.844s1.438-1.781 1.844-2.831c0.394-1.019 0.669-2.181 0.744-3.881 0.075-1.706 0.094-2.25 0.094-6.594s-0.019-4.887-0.094-6.594c-0.075-1.7-0.35-2.869-0.744-3.881-0.394-1.063-0.938-1.956-1.831-2.844-0.887-0.887-1.781-1.438-2.831-1.844-1.019-0.394-2.181-0.669-3.881-0.744-1.712-0.081-2.256-0.1-6.6-0.1v0z"></path>
<path d="M16 7.781c-4.537 0-8.219 3.681-8.219 8.219s3.681 8.219 8.219 8.219 8.219-3.681 8.219-8.219c0-4.537-3.681-8.219-8.219-8.219zM16 21.331c-2.944 0-5.331-2.387-5.331-5.331s2.387-5.331 5.331-5.331c2.944 0 5.331 2.387 5.331 5.331s-2.387 5.331-5.331 5.331z"></path>
<path d="M26.462 7.456c0 1.060-0.859 1.919-1.919 1.919s-1.919-0.859-1.919-1.919c0-1.060 0.859-1.919 1.919-1.919s1.919 0.859 1.919 1.919z"></path>
</symbol>
<symbol id="icon-twitter" viewBox="0 0 32 32">
<path d="M32 7.075c-1.175 0.525-2.444 0.875-3.769 1.031 1.356-0.813 2.394-2.1 2.887-3.631-1.269 0.75-2.675 1.3-4.169 1.594-1.2-1.275-2.906-2.069-4.794-2.069-3.625 0-6.563 2.938-6.563 6.563 0 0.512 0.056 1.012 0.169 1.494-5.456-0.275-10.294-2.888-13.531-6.862-0.563 0.969-0.887 2.1-0.887 3.3 0 2.275 1.156 4.287 2.919 5.463-1.075-0.031-2.087-0.331-2.975-0.819 0 0.025 0 0.056 0 0.081 0 3.181 2.263 5.838 5.269 6.437-0.55 0.15-1.131 0.231-1.731 0.231-0.425 0-0.831-0.044-1.237-0.119 0.838 2.606 3.263 4.506 6.131 4.563-2.25 1.762-5.075 2.813-8.156 2.813-0.531 0-1.050-0.031-1.569-0.094 2.913 1.869 6.362 2.95 10.069 2.95 12.075 0 18.681-10.006 18.681-18.681 0-0.287-0.006-0.569-0.019-0.85 1.281-0.919 2.394-2.075 3.275-3.394z"></path>
</symbol>
<symbol id="icon-linkedin2" viewBox="0 0 32 32">
<path d="M12 12h5.535v2.837h0.079c0.77-1.381 2.655-2.837 5.464-2.837 5.842 0 6.922 3.637 6.922 8.367v9.633h-5.769v-8.54c0-2.037-0.042-4.657-3.001-4.657-3.005 0-3.463 2.218-3.463 4.509v8.688h-5.767v-18z"></path>
<path d="M2 12h6v18h-6v-18z"></path>
<path d="M8 7c0 1.657-1.343 3-3 3s-3-1.343-3-3c0-1.657 1.343-3 3-3s3 1.343 3 3z"></path>
</symbol>
<symbol id="icon-bars" viewBox="0 0 24 28">
<path d="M24 21v2c0 0.547-0.453 1-1 1h-22c-0.547 0-1-0.453-1-1v-2c0-0.547 0.453-1 1-1h22c0.547 0 1 0.453 1 1zM24 13v2c0 0.547-0.453 1-1 1h-22c-0.547 0-1-0.453-1-1v-2c0-0.547 0.453-1 1-1h22c0.547 0 1 0.453 1 1zM24 5v2c0 0.547-0.453 1-1 1h-22c-0.547 0-1-0.453-1-1v-2c0-0.547 0.453-1 1-1h22c0.547 0 1 0.453 1 1z"></path>
</symbol>
<symbol id="icon-browser" viewBox="0 0 28 28">
<path d="M21 3.5h-14c-0.928 0-1.818 0.369-2.475 1.025s-1.025 1.547-1.025 2.475v14c0 0.928 0.369 1.818 1.025 2.475s1.547 1.025 2.475 1.025h14c0.928 0 1.818-0.369 2.475-1.025s1.025-1.547 1.025-2.475v-14c0-0.928-0.369-1.818-1.025-2.475s-1.547-1.025-2.475-1.025zM22.167 21c0 0.309-0.123 0.606-0.342 0.825s-0.516 0.342-0.825 0.342h-14c-0.309 0-0.606-0.123-0.825-0.342s-0.342-0.516-0.342-0.825v-8.167h16.333v8.167zM5.833 10.5v-3.5c0-0.309 0.123-0.606 0.342-0.825s0.516-0.342 0.825-0.342h14c0.309 0 0.606 0.123 0.825 0.342s0.342 0.516 0.342 0.825v3.5h-16.333z"></path>
<path d="M9.333 9.368c0.644 0 1.167-0.522 1.167-1.167s-0.522-1.167-1.167-1.167c-0.644 0-1.167 0.522-1.167 1.167s0.522 1.167 1.167 1.167z"></path>
<path d="M14 9.368c0.644 0 1.167-0.522 1.167-1.167s-0.522-1.167-1.167-1.167c-0.644 0-1.167 0.522-1.167 1.167s0.522 1.167 1.167 1.167z"></path>
</symbol>
<symbol id="icon-message-circle" viewBox="0 0 28 28">
<path d="M14 15.167c0.644 0 1.167-0.522 1.167-1.167s-0.522-1.167-1.167-1.167c-0.644 0-1.167 0.522-1.167 1.167s0.522 1.167 1.167 1.167z"></path>
<path d="M18.667 15.167c0.644 0 1.167-0.522 1.167-1.167s-0.522-1.167-1.167-1.167c-0.644 0-1.167 0.522-1.167 1.167s0.522 1.167 1.167 1.167z"></path>
<path d="M9.333 15.167c0.644 0 1.167-0.522 1.167-1.167s-0.522-1.167-1.167-1.167c-0.644 0-1.167 0.522-1.167 1.167s0.522 1.167 1.167 1.167z"></path>
<path d="M22.248 5.752c-1.914-1.927-4.441-3.125-7.144-3.389s-5.414 0.424-7.664 1.945-3.9 3.779-4.664 6.385c-0.764 2.606-0.595 5.398 0.479 7.892 0.112 0.232 0.149 0.493 0.105 0.747l-1.027 4.935c-0.040 0.189-0.031 0.385 0.024 0.571s0.155 0.354 0.291 0.491c0.112 0.111 0.245 0.198 0.391 0.256s0.303 0.086 0.46 0.082h0.233l4.993-1.003c0.254-0.030 0.511 0.006 0.747 0.105 2.495 1.073 5.286 1.243 7.892 0.479s4.864-2.413 6.385-4.664c1.521-2.25 2.208-4.961 1.945-7.664s-1.462-5.23-3.389-7.144l-0.058-0.023zM23.217 15.505c-0.228 1.393-0.769 2.716-1.582 3.87s-1.878 2.108-3.113 2.791-2.61 1.076-4.019 1.151c-1.409 0.075-2.818-0.171-4.119-0.719-0.461-0.196-0.957-0.299-1.458-0.303-0.219 0.002-0.438 0.021-0.653 0.058l-3.29 0.665 0.665-3.29c0.132-0.712 0.047-1.448-0.245-2.112-0.548-1.301-0.794-2.709-0.719-4.119s0.469-2.784 1.152-4.019c0.683-1.235 1.637-2.3 2.791-3.113s2.477-1.354 3.87-1.583c1.462-0.24 2.96-0.128 4.371 0.326s2.693 1.237 3.74 2.285c1.048 1.048 1.831 2.33 2.285 3.74s0.565 2.909 0.325 4.371z"></path>
</symbol>
<symbol id="icon-eye1" viewBox="0 0 24 24">
<path d="M0.106 11.553c-0.136 0.274-0.146 0.603 0 0.894 0 0 0.396 0.789 1.12 1.843 0.451 0.656 1.038 1.432 1.757 2.218 0.894 0.979 2.004 1.987 3.319 2.8 1.595 0.986 3.506 1.692 5.698 1.692s4.103-0.706 5.698-1.692c1.315-0.813 2.425-1.821 3.319-2.8 0.718-0.786 1.306-1.562 1.757-2.218 0.724-1.054 1.12-1.843 1.12-1.843 0.136-0.274 0.146-0.603 0-0.894 0 0-0.396-0.789-1.12-1.843-0.451-0.656-1.038-1.432-1.757-2.218-0.894-0.979-2.004-1.987-3.319-2.8-1.595-0.986-3.506-1.692-5.698-1.692s-4.103 0.706-5.698 1.692c-1.315 0.813-2.425 1.821-3.319 2.8-0.719 0.786-1.306 1.561-1.757 2.218-0.724 1.054-1.12 1.843-1.12 1.843zM2.14 12c0.163-0.281 0.407-0.681 0.734-1.158 0.41-0.596 0.94-1.296 1.585-2.001 0.805-0.881 1.775-1.756 2.894-2.448 1.35-0.834 2.901-1.393 4.647-1.393s3.297 0.559 4.646 1.393c1.119 0.692 2.089 1.567 2.894 2.448 0.644 0.705 1.175 1.405 1.585 2.001 0.328 0.477 0.572 0.876 0.734 1.158-0.163 0.281-0.407 0.681-0.734 1.158-0.41 0.596-0.94 1.296-1.585 2.001-0.805 0.881-1.775 1.756-2.894 2.448-1.349 0.834-2.9 1.393-4.646 1.393s-3.297-0.559-4.646-1.393c-1.119-0.692-2.089-1.567-2.894-2.448-0.644-0.705-1.175-1.405-1.585-2.001-0.328-0.477-0.572-0.877-0.735-1.158zM16 12c0-1.104-0.449-2.106-1.172-2.828s-1.724-1.172-2.828-1.172-2.106 0.449-2.828 1.172-1.172 1.724-1.172 2.828 0.449 2.106 1.172 2.828 1.724 1.172 2.828 1.172 2.106-0.449 2.828-1.172 1.172-1.724 1.172-2.828zM14 12c0 0.553-0.223 1.051-0.586 1.414s-0.861 0.586-1.414 0.586-1.051-0.223-1.414-0.586-0.586-0.861-0.586-1.414 0.223-1.051 0.586-1.414 0.861-0.586 1.414-0.586 1.051 0.223 1.414 0.586 0.586 0.861 0.586 1.414z"></path>
</symbol>
<symbol id="icon-mail" viewBox="0 0 24 24">
<path d="M3 7.921l8.427 5.899c0.34 0.235 0.795 0.246 1.147 0l8.426-5.899v10.079c0 0.272-0.11 0.521-0.295 0.705s-0.433 0.295-0.705 0.295h-16c-0.272 0-0.521-0.11-0.705-0.295s-0.295-0.433-0.295-0.705zM1 5.983c0 0.010 0 0.020 0 0.030v11.987c0 0.828 0.34 1.579 0.88 2.12s1.292 0.88 2.12 0.88h16c0.828 0 1.579-0.34 2.12-0.88s0.88-1.292 0.88-2.12v-11.988c0-0.010 0-0.020 0-0.030-0.005-0.821-0.343-1.565-0.88-2.102-0.541-0.54-1.292-0.88-2.12-0.88h-16c-0.828 0-1.579 0.34-2.12 0.88-0.537 0.537-0.875 1.281-0.88 2.103zM20.894 5.554l-8.894 6.225-8.894-6.225c0.048-0.096 0.112-0.183 0.188-0.259 0.185-0.185 0.434-0.295 0.706-0.295h16c0.272 0 0.521 0.11 0.705 0.295 0.076 0.076 0.14 0.164 0.188 0.259z"></path>
</symbol>
<symbol id="icon-instagram-2" viewBox="0 0 28 28">
<path fill="none" stroke="#ffb400" style="stroke: var(--color1, #ffb400)" stroke-linejoin="miter" stroke-linecap="butt" stroke-miterlimit="4" stroke-width="2.5846" d="M24.444 6.522c0-1.642-1.328-2.97-2.97-2.97s-2.97 1.328-2.97 2.97c0 0.103 0.005 0.204 0.015 0.304-1.308-0.825-2.859-1.302-4.523-1.302-4.689 0-8.476 3.787-8.476 8.476s3.787 8.476 8.476 8.476c4.689 0 8.475-3.787 8.475-8.476 0-1.664-0.477-3.215-1.302-4.523 0.1 0.010 0.201 0.015 0.304 0.015h-0.002c0.39 0 0.777-0.076 1.138-0.225s0.689-0.368 0.964-0.644v0c0.276-0.276 0.495-0.604 0.644-0.965s0.226-0.746 0.225-1.136zM24.444 6.522v-0.002c0 0.001 0 0.001 0 0.002zM26.617 8.284v0l0 0.010c0.093 1.655 0.091 3.298 0.090 4.996-0 0.236-0 0.472-0 0.71 0 0.267 0 0.533 0.001 0.797 0.002 1.668 0.005 3.282-0.090 4.907v-0l-0.001 0.012c-0.101 2.080-0.558 3.695-1.882 5.019-1.321 1.321-2.94 1.781-5.019 1.882v0l-0.010 0.001c-1.655 0.093-3.298 0.091-4.996 0.089-0.236-0-0.472-0-0.71-0s-0.474 0-0.709 0c-1.695 0.002-3.34 0.004-4.997-0.089v0l-0.010-0.001c-2.080-0.101-3.695-0.558-5.019-1.882-1.321-1.321-1.781-2.94-1.882-5.019h0l-0.001-0.010c-0.093-1.655-0.091-3.301-0.090-4.997 0-0.235 0-0.472 0-0.709s-0-0.474-0-0.709c-0.002-1.695-0.004-3.34 0.090-4.998h0l0-0.010c0.101-2.080 0.558-3.695 1.882-5.019 1.321-1.321 2.94-1.781 5.019-1.882v0l0.010-0.001c1.655-0.093 3.298-0.091 4.996-0.090 0.236 0 0.472 0 0.71 0s0.474-0 0.709-0c1.695-0.002 3.34-0.004 4.997 0.090v0l0.010 0c2.080 0.101 3.695 0.558 5.019 1.882 1.321 1.321 1.781 2.94 1.882 5.019zM10.62 14c0-1.857 1.519-3.376 3.376-3.376s3.376 1.519 3.376 3.376c0 1.857-1.519 3.376-3.376 3.376s-3.376-1.519-3.376-3.376z"></path>
</symbol>
<symbol id="icon-world" viewBox="0 0 28 28">
<path fill="#ffb400" style="fill: var(--color1, #ffb400)" d="M28 14c0-1.839-0.362-3.659-1.066-5.358s-1.735-3.242-3.035-4.542c-1.3-1.3-2.843-2.331-4.542-3.035s-3.519-1.066-5.358-1.066c-3.713 0-7.274 1.475-9.9 4.1s-4.1 6.186-4.1 9.9c0 3.713 1.475 7.274 4.1 9.899s6.186 4.101 9.9 4.101 7.274-1.475 9.899-4.101c2.626-2.625 4.101-6.186 4.101-9.899zM25.102 12.6h-4.102c-0.231-3.293-1.359-6.459-3.262-9.156 1.955 0.694 3.679 1.918 4.979 3.535s2.126 3.563 2.385 5.621zM9.912 15.4h8.288c-0.358 3.459-1.833 6.707-4.2 9.254-2.366-2.536-3.806-5.797-4.088-9.254zM9.912 12.6c0.326-3.441 1.761-6.684 4.088-9.24 2.387 2.529 3.864 5.779 4.2 9.24h-8.288zM10.416 3.402c-1.913 2.712-3.059 5.889-3.318 9.198h-4.2c0.264-2.084 1.11-4.051 2.439-5.678s3.089-2.846 5.079-3.52zM2.898 15.4h4.2c0.231 3.306 1.369 6.484 3.29 9.184-1.982-0.677-3.735-1.897-5.059-3.52s-2.166-3.586-2.431-5.664zM17.668 24.57c1.916-2.701 3.067-5.869 3.332-9.17h4.13c-0.265 2.072-1.104 4.029-2.423 5.65s-3.064 2.84-5.039 3.52z"></path>
</symbol>
<symbol id="icon-call" viewBox="0 0 28 28">
<path fill="#ffb503" style="fill: var(--color2, #ffb503)" d="M20.166 27.684c0.368 0.002 0.732-0.069 1.072-0.209s0.648-0.347 0.907-0.607l3.751-3.751c0.258-0.259 0.402-0.61 0.402-0.976s-0.145-0.716-0.402-0.976l-5.536-5.536c-0.259-0.258-0.61-0.402-0.976-0.402s-0.716 0.145-0.976 0.402l-2.214 2.201c-1.533-0.409-2.953-1.161-4.152-2.201-1.036-1.201-1.789-2.62-2.201-4.152l2.201-2.214c0.258-0.259 0.402-0.61 0.402-0.976s-0.145-0.716-0.402-0.976l-5.536-5.536c-0.259-0.258-0.61-0.402-0.976-0.402s-0.716 0.145-0.976 0.402l-3.737 3.765c-0.261 0.259-0.467 0.568-0.607 0.907s-0.211 0.704-0.209 1.072c0.126 5.318 2.251 10.393 5.951 14.214 3.821 3.701 8.896 5.826 14.214 5.951zM5.536 4.723l3.585 3.585-1.785 1.785c-0.169 0.158-0.296 0.357-0.368 0.577s-0.089 0.455-0.047 0.683c0.517 2.312 1.613 4.455 3.183 6.228 1.772 1.573 3.915 2.668 6.228 3.183 0.224 0.047 0.457 0.037 0.677-0.028s0.42-0.184 0.583-0.346l1.785-1.827 3.585 3.585-2.768 2.768c-4.59-0.118-8.969-1.95-12.276-5.135-3.193-3.309-5.030-7.694-5.149-12.29l2.768-2.768zM24.913 12.459h2.768c0.036-1.646-0.262-3.281-0.875-4.809s-1.53-2.915-2.693-4.079c-1.164-1.164-2.552-2.080-4.079-2.693s-3.163-0.911-4.809-0.875v2.768c1.284-0.044 2.564 0.176 3.759 0.647s2.281 1.183 3.19 2.092c0.909 0.909 1.621 1.995 2.092 3.19s0.691 2.475 0.647 3.759z"></path>
<path fill="#ffb503" style="fill: var(--color2, #ffb503)" d="M15.227 8.309c2.907 0 4.152 1.246 4.152 4.152h2.768c0-4.457-2.464-6.92-6.92-6.92v2.768z"></path>
</symbol>
<symbol id="icon-instagram-3" viewBox="0 0 27 28">
<path fill="#ffb400" style="fill: var(--color1, #ffb400)" d="M12.843 9.498c-2.344 0-4.257 1.949-4.257 4.337s1.913 4.337 4.257 4.337 4.257-1.949 4.257-4.337c0-2.388-1.913-4.337-4.257-4.337zM25.609 13.835c0-1.796 0.016-3.576-0.083-5.368-0.099-2.082-0.565-3.93-2.060-5.453-1.498-1.526-3.308-1.998-5.352-2.099-1.763-0.101-3.509-0.085-5.269-0.085-1.763 0-3.509-0.016-5.269 0.085-2.044 0.101-3.857 0.576-5.352 2.099-1.498 1.526-1.961 3.371-2.060 5.453-0.099 1.796-0.083 3.576-0.083 5.368s-0.016 3.576 0.083 5.368c0.099 2.082 0.565 3.93 2.060 5.453 1.498 1.526 3.308 1.998 5.352 2.099 1.763 0.101 3.509 0.085 5.269 0.085 1.763 0 3.509 0.016 5.269-0.085 2.044-0.101 3.857-0.576 5.352-2.099 1.498-1.526 1.961-3.371 2.060-5.453 0.102-1.793 0.083-3.572 0.083-5.368zM12.843 20.508c-3.624 0-6.549-2.98-6.549-6.673s2.925-6.673 6.549-6.673c3.624 0 6.549 2.98 6.549 6.673s-2.925 6.673-6.549 6.673zM19.66 8.447c-0.846 0-1.529-0.696-1.529-1.558s0.683-1.558 1.529-1.558c0.846 0 1.53 0.696 1.53 1.558 0 0.205-0.039 0.408-0.116 0.597s-0.189 0.361-0.332 0.506c-0.142 0.145-0.311 0.26-0.496 0.338s-0.385 0.118-0.586 0.118z"></path>
</symbol>
<symbol id="icon-person" viewBox="0 0 29 28">
<path fill="#979797" style="fill: var(--color1, #979797)" d="M14.29 12.833c0.923 0 1.825-0.274 2.593-0.786s1.366-1.242 1.719-2.094c0.353-0.853 0.446-1.791 0.266-2.696s-0.625-1.737-1.277-2.389-1.484-1.097-2.389-1.277c-0.905-0.18-1.844-0.088-2.696 0.266s-1.582 0.951-2.094 1.719c-0.513 0.767-0.786 1.67-0.786 2.593 0 1.238 0.492 2.425 1.367 3.3s2.062 1.367 3.3 1.367zM14.29 5.833c0.462 0 0.913 0.137 1.296 0.393s0.683 0.621 0.859 1.047c0.177 0.426 0.223 0.896 0.133 1.348s-0.312 0.868-0.639 1.195c-0.326 0.326-0.742 0.549-1.195 0.639s-0.922 0.044-1.348-0.133c-0.426-0.177-0.791-0.476-1.047-0.859s-0.393-0.835-0.393-1.296c0-0.619 0.246-1.212 0.683-1.65s1.031-0.683 1.65-0.683z"></path>
<path fill="#979797" style="fill: var(--color1, #979797)" d="M14.29 15.167c-2.166 0-4.243 0.86-5.775 2.392s-2.392 3.609-2.392 5.775c0 0.309 0.123 0.606 0.342 0.825s0.516 0.342 0.825 0.342c0.309 0 0.606-0.123 0.825-0.342s0.342-0.516 0.342-0.825c0-1.547 0.615-3.031 1.709-4.125s2.578-1.709 4.125-1.709c1.547 0 3.031 0.615 4.125 1.709s1.708 2.578 1.708 4.125c0 0.309 0.123 0.606 0.342 0.825s0.516 0.342 0.825 0.342c0.31 0 0.606-0.123 0.825-0.342s0.342-0.516 0.342-0.825c0-2.166-0.86-4.243-2.392-5.775s-3.609-2.392-5.775-2.392z"></path>
</symbol>
<symbol id="icon-download" viewBox="0 0 31 28">
<path d="M18.151 20.482l-1.931 1.857v-8.312c0-0.391-0.155-0.766-0.432-1.042s-0.651-0.432-1.042-0.432c-0.391 0-0.766 0.155-1.042 0.432s-0.432 0.651-0.432 1.042v8.238l-1.901-1.916c-0.137-0.137-0.301-0.246-0.48-0.321s-0.372-0.113-0.566-0.113-0.387 0.038-0.566 0.113c-0.18 0.074-0.343 0.183-0.48 0.321s-0.246 0.3-0.321 0.48c-0.074 0.179-0.113 0.372-0.113 0.566s0.038 0.387 0.113 0.566c0.074 0.18 0.183 0.343 0.321 0.48l4.421 4.421c0.138 0.137 0.301 0.245 0.481 0.318s0.372 0.111 0.566 0.109c0.379-0.001 0.744-0.149 1.017-0.413l4.421-4.274c0.156-0.129 0.284-0.289 0.376-0.47s0.145-0.379 0.157-0.581c0.012-0.202-0.018-0.405-0.088-0.595s-0.179-0.364-0.319-0.51-0.309-0.262-0.496-0.34c-0.187-0.078-0.388-0.117-0.591-0.113s-0.402 0.048-0.587 0.132c-0.185 0.084-0.35 0.205-0.485 0.356z"></path>
<path d="M23.102 6.659c-0.601-1.737-1.729-3.244-3.227-4.311s-3.29-1.64-5.129-1.64c-1.838 0-3.631 0.573-5.129 1.64s-2.626 2.573-3.227 4.311c-1.324 0.177-2.575 0.711-3.619 1.545s-1.842 1.935-2.308 3.187c-0.466 1.252-0.583 2.607-0.339 3.92s0.841 2.535 1.727 3.536c0.107 0.188 0.254 0.351 0.431 0.476s0.379 0.21 0.593 0.247c0.213 0.038 0.432 0.028 0.642-0.028s0.403-0.158 0.569-0.298c0.165-0.14 0.298-0.315 0.388-0.512s0.136-0.411 0.133-0.628c-0.002-0.217-0.052-0.43-0.146-0.625s-0.23-0.367-0.398-0.504c-0.57-0.638-0.943-1.427-1.074-2.272s-0.014-1.71 0.337-2.49 0.921-1.441 1.64-1.904c0.719-0.463 1.557-0.707 2.412-0.703h0.147c0.345 0.007 0.681-0.107 0.95-0.323s0.454-0.518 0.523-0.856c0.271-1.333 0.994-2.531 2.046-3.391s2.371-1.331 3.73-1.331c1.36 0 2.678 0.47 3.73 1.331s1.776 2.059 2.046 3.391c0.069 0.338 0.254 0.641 0.523 0.856s0.606 0.33 0.95 0.323h0.088c0.855-0.004 1.693 0.24 2.413 0.703s1.289 1.124 1.64 1.904c0.351 0.78 0.468 1.645 0.337 2.49s-0.504 1.634-1.074 2.272c-0.13 0.146-0.229 0.315-0.293 0.5s-0.090 0.379-0.078 0.574 0.063 0.385 0.15 0.56c0.087 0.175 0.207 0.331 0.354 0.459 0.269 0.237 0.615 0.368 0.973 0.368 0.209-0 0.416-0.045 0.607-0.131s0.36-0.213 0.499-0.37c0.91-0.999 1.528-2.228 1.787-3.554s0.147-2.698-0.321-3.965-1.277-2.381-2.335-3.22c-1.059-0.839-2.328-1.371-3.669-1.537z"></path>
</symbol>
<symbol id="icon-location" viewBox="0 0 21 28">
<path d="M10.706 27.176c-1.932-1.577-3.722-3.306-5.353-5.169-2.447-2.797-5.353-6.963-5.353-10.933-0.001-2.027 0.626-4.009 1.803-5.695s2.849-3 4.806-3.776c1.957-0.776 4.111-0.979 6.188-0.583s3.986 1.373 5.483 2.807c0.997 0.95 1.787 2.079 2.324 3.323s0.812 2.578 0.808 3.924c0 3.97-2.906 8.136-5.353 10.933-1.631 1.863-3.421 3.592-5.353 5.169zM10.706 6.684c-1.217 0-2.384 0.463-3.244 1.286s-1.344 1.94-1.344 3.105c0 1.165 0.483 2.282 1.344 3.105s2.027 1.286 3.244 1.286c1.217 0 2.384-0.463 3.244-1.286s1.344-1.94 1.344-3.105c0-1.165-0.483-2.282-1.344-3.105s-2.027-1.286-3.244-1.286z"></path>
</symbol>
</defs>
</svg>
